<?xml version="1.0" encoding="UTF-8"?>
<svg xmlns="http://www.w3.org/2000/svg" viewBox="0 0 400 400" class="" role="presentation" aria-hidden="true" data-bowl="chilli-powder"><defs><filter id="b-chilli-powder-soft" x="-20%" y="-40%" width="140%" height="180%"><feGaussianBlur stdDeviation="5"></feGaussianBlur></filter><filter id="b-chilli-powder-ground" x="-20%" y="-50%" width="140%" height="200%"><feGaussianBlur stdDeviation="9"></feGaussianBlur></filter><filter id="b-chilli-powder-stone" x="0" y="0" width="100%" height="100%" color-interpolation-filters="sRGB"><feTurbulence type="fractalNoise" baseFrequency="0.75" numOctaves="2" seed="21" result="n"></feTurbulence><feColorMatrix in="n" type="matrix" values="0.33 0.33 0.33 0 0  0.33 0.33 0.33 0 0  0.33 0.33 0.33 0 0  0 0 0 0 0.2" result="g"></feColorMatrix><feBlend in="g" in2="SourceGraphic" mode="overlay" result="b"></feBlend><feComposite in="b" in2="SourceGraphic" operator="in"></feComposite></filter><linearGradient id="b-chilli-powder-body" x1="0.1" y1="0" x2="0.9" y2="1"><stop offset="0" stop-color="#3d352e"></stop><stop offset="0.45" stop-color="#1a1612"></stop><stop offset="1" stop-color="#070605"></stop></linearGradient><linearGradient id="b-chilli-powder-rim" x1="0" y1="0" x2="1" y2="1"><stop offset="0" stop-color="#5a5047"></stop><stop offset="0.5" stop-color="#2a2420"></stop><stop offset="1" stop-color="#14110e"></stop></linearGradient><linearGradient id="b-chilli-powder-wall" x1="0" y1="0" x2="0" y2="1"><stop offset="0" stop-color="#2e2823"></stop><stop offset="0.55" stop-color="#100d0b"></stop><stop offset="1" stop-color="#070605"></stop></linearGradient></defs><ellipse cx="208" cy="304" rx="172" ry="38" fill="#000" opacity="0.42" filter="url(#b-chilli-powder-ground)"></ellipse><ellipse cx="200" cy="302" rx="150" ry="24" fill="#000" opacity="0.35" filter="url(#b-chilli-powder-soft)"></ellipse><path d="M 44 236 C 44 300, 108 328, 200 328 C 292 328, 356 300, 356 236 Z" fill="url(#b-chilli-powder-body)" filter="url(#b-chilli-powder-stone)"></path><ellipse cx="112" cy="266" rx="56" ry="26" fill="#fff" opacity="0.06" filter="url(#b-chilli-powder-soft)"></ellipse><ellipse cx="200" cy="236" rx="156" ry="50" fill="url(#b-chilli-powder-rim)" filter="url(#b-chilli-powder-stone)"></ellipse><ellipse cx="200" cy="237" rx="146" ry="46" fill="#0c0a08" opacity="0.55"></ellipse><ellipse cx="200" cy="238" rx="136" ry="42" fill="url(#b-chilli-powder-wall)"></ellipse><path d="M 56 230 C 90 198, 146 186, 200 186 C 236 186, 274 191, 306 202" fill="none" stroke="#fff" stroke-opacity="0.16" stroke-width="5" stroke-linecap="round" filter="url(#b-chilli-powder-soft)"></path><path d="M 60 228 C 94 198, 148 188, 200 188 C 234 188, 268 192, 298 202" fill="none" stroke="#fff" stroke-opacity="0.28" stroke-width="1.4" stroke-linecap="round"></path><g><defs><radialGradient id="b-chilli-powder-dome" gradientUnits="userSpaceOnUse" cx="152" cy="180" r="215" fx="140" fy="170"><stop offset="0" stop-color="#db6550"></stop><stop offset="0.36" stop-color="#d1391f"></stop><stop offset="0.78" stop-color="#922816"></stop><stop offset="1" stop-color="#59170c"></stop></radialGradient><radialGradient id="b-chilli-powder-bed" gradientUnits="userSpaceOnUse" cx="200" cy="238" r="140"><stop offset="0" stop-color="#d1391f"></stop><stop offset="0.72" stop-color="#922816"></stop><stop offset="1" stop-color="#59170c"></stop></radialGradient><clipPath id="b-chilli-powder-cavclip"><ellipse cx="200" cy="238" rx="138" ry="44"></ellipse><path d="M 62 252 C 88 214, 128 172, 176 160 C 204 152, 236 158, 262 176 C 296 200, 322 226, 338 252 Z"></path></clipPath><filter id="b-chilli-powder-surf" x="-8%" y="-14%" width="116%" height="128%" color-interpolation-filters="sRGB"><feTurbulence type="fractalNoise" baseFrequency="0.035" numOctaves="2" seed="12" result="warp"></feTurbulence><feDisplacementMap in="SourceGraphic" in2="warp" scale="9" xChannelSelector="R" yChannelSelector="G" result="shape"></feDisplacementMap><feTurbulence type="fractalNoise" baseFrequency="0.95" numOctaves="2" seed="13" result="fine"></feTurbulence><feColorMatrix in="fine" type="matrix" values="0.33 0.33 0.33 0 0  0.33 0.33 0.33 0 0  0.33 0.33 0.33 0 0  0 0 0 0 0.26" result="fineG"></feColorMatrix><feTurbulence type="fractalNoise" baseFrequency="0.045" numOctaves="3" seed="14" result="mottle"></feTurbulence><feColorMatrix in="mottle" type="matrix" values="0.33 0.33 0.33 0 0  0.33 0.33 0.33 0 0  0.33 0.33 0.33 0 0  0 0 0 0 0.32" result="mottleG"></feColorMatrix><feBlend in="fineG" in2="shape" mode="overlay" result="s1"></feBlend><feBlend in="mottleG" in2="s1" mode="overlay" result="s2"></feBlend><feComposite in="s2" in2="shape" operator="in"></feComposite></filter></defs><g clip-path="url(#b-chilli-powder-cavclip)"><g filter="url(#b-chilli-powder-surf)"><ellipse cx="200" cy="240" rx="136" ry="42" fill="url(#b-chilli-powder-bed)"></ellipse></g><ellipse cx="200" cy="236" rx="136" ry="42" fill="none" stroke="#000" stroke-width="18" opacity="0.55" filter="url(#b-chilli-powder-soft)"></ellipse><g filter="url(#b-chilli-powder-surf)"><path d="M 62 252 C 88 214, 128 172, 176 160 C 204 152, 236 158, 262 176 C 296 200, 322 226, 338 252 Z" fill="url(#b-chilli-powder-dome)"></path><g filter="url(#b-chilli-powder-soft)"><ellipse cx="267.9" cy="201.1" rx="19.6" ry="5.4" fill="#922816" opacity="0.42"></ellipse><ellipse cx="246.6" cy="178.8" rx="10.8" ry="3.7" fill="#db6550" opacity="0.5"></ellipse><ellipse cx="170.8" cy="196.6" rx="16.0" ry="3.9" fill="#db6550" opacity="0.5"></ellipse><ellipse cx="183.8" cy="207.0" rx="12.0" ry="5.2" fill="#db6550" opacity="0.5"></ellipse><ellipse cx="209.4" cy="204.7" rx="9.8" ry="6.2" fill="#db6550" opacity="0.5"></ellipse><ellipse cx="264.6" cy="213.6" rx="15.2" ry="7.6" fill="#922816" opacity="0.42"></ellipse><ellipse cx="171.7" cy="230.2" rx="14.8" ry="3.0" fill="#922816" opacity="0.42"></ellipse><ellipse cx="172.2" cy="192.8" rx="20.4" ry="6.9" fill="#db6550" opacity="0.5"></ellipse><ellipse cx="278.7" cy="198.2" rx="20.7" ry="5.3" fill="#922816" opacity="0.42"></ellipse><ellipse cx="218.1" cy="192.1" rx="10.2" ry="6.9" fill="#db6550" opacity="0.5"></ellipse><ellipse cx="276.4" cy="219.8" rx="20.5" ry="5.1" fill="#922816" opacity="0.42"></ellipse></g></g></g><defs><radialGradient id="b-chilli-powder-sheen" gradientUnits="userSpaceOnUse" cx="150" cy="186" r="120"><stop offset="0" stop-color="#fff" stop-opacity="0.22"></stop><stop offset="1" stop-color="#fff" stop-opacity="0"></stop></radialGradient><radialGradient id="b-chilli-powder-vig" gradientUnits="userSpaceOnUse" cx="200" cy="232" r="150"><stop offset="0.55" stop-color="#000" stop-opacity="0"></stop><stop offset="1" stop-color="#000" stop-opacity="0.55"></stop></radialGradient></defs><g clip-path="url(#b-chilli-powder-cavclip)"><ellipse cx="200" cy="232" rx="140" ry="48" fill="url(#b-chilli-powder-sheen)"></ellipse><ellipse cx="200" cy="232" rx="140" ry="48" fill="url(#b-chilli-powder-vig)"></ellipse></g><circle cx="59.6" cy="328.8" r="2.0" fill="#d1391f" opacity="0.7"></circle><circle cx="55.9" cy="294.8" r="2.4" fill="#922816" opacity="0.7"></circle><circle cx="159.9" cy="304.3" r="2.4" fill="#922816" opacity="0.7"></circle><circle cx="226.6" cy="305.3" r="2.2" fill="#922816" opacity="0.7"></circle><circle cx="124.1" cy="309.6" r="0.9" fill="#d1391f" opacity="0.7"></circle><circle cx="150.5" cy="330.4" r="0.9" fill="#d1391f" opacity="0.7"></circle><circle cx="261.6" cy="306.6" r="1.5" fill="#d1391f" opacity="0.7"></circle><circle cx="121.4" cy="319.6" r="1.3" fill="#d1391f" opacity="0.7"></circle><circle cx="280.4" cy="296.8" r="2.3" fill="#922816" opacity="0.7"></circle><circle cx="71.0" cy="329.5" r="0.9" fill="#d1391f" opacity="0.7"></circle><circle cx="114.5" cy="333.0" r="2.8" fill="#922816" opacity="0.7"></circle><circle cx="221.9" cy="329.2" r="1.6" fill="#d1391f" opacity="0.7"></circle><circle cx="149.7" cy="323.7" r="2.6" fill="#922816" opacity="0.7"></circle><circle cx="345.5" cy="323.2" r="1.5" fill="#d1391f" opacity="0.7"></circle><circle cx="116.3" cy="322.9" r="2.7" fill="#922816" opacity="0.7"></circle><circle cx="91.3" cy="303.9" r="2.7" fill="#922816" opacity="0.7"></circle><circle cx="223.2" cy="330.5" r="1.2" fill="#d1391f" opacity="0.7"></circle><circle cx="222.8" cy="297.8" r="1.9" fill="#d1391f" opacity="0.7"></circle><circle cx="288.0" cy="303.7" r="0.9" fill="#d1391f" opacity="0.7"></circle><circle cx="78.4" cy="319.6" r="2.8" fill="#922816" opacity="0.7"></circle><circle cx="119.7" cy="309.4" r="1.2" fill="#d1391f" opacity="0.7"></circle><circle cx="330.8" cy="306.5" r="1.2" fill="#d1391f" opacity="0.7"></circle><circle cx="52.0" cy="300.6" r="1.3" fill="#d1391f" opacity="0.7"></circle><circle cx="47.5" cy="329.9" r="2.0" fill="#d1391f" opacity="0.7"></circle><circle cx="75.0" cy="294.7" r="1.9" fill="#d1391f" opacity="0.7"></circle><circle cx="93.0" cy="316.7" r="1.5" fill="#d1391f" opacity="0.7"></circle><ellipse cx="136" cy="212" rx="26" ry="6" fill="#d1391f" opacity="0.35" filter="url(#b-chilli-powder-soft)"></ellipse></g><path d="M 44 236 C 44 262, 108 286, 200 286 C 292 286, 356 262, 356 236 C 356 250, 292 268, 200 268 C 108 268, 44 250, 44 236 Z" fill="url(#b-chilli-powder-rim)" filter="url(#b-chilli-powder-stone)"></path><path d="M 64 246 C 100 262, 150 270, 200 270 C 250 270, 300 262, 336 246" fill="none" stroke="#000" stroke-opacity="0.35" stroke-width="6" filter="url(#b-chilli-powder-soft)"></path></svg>