<?xml version="1.0" encoding="UTF-8"?>
<svg xmlns="http://www.w3.org/2000/svg" viewBox="0 0 400 400" class="" role="presentation" aria-hidden="true" data-bowl="dehydrated-garlic-flakes"><defs><radialGradient id="b-dehydrated-garlic-flakes-shadow" cx="50%" cy="50%" r="50%"><stop offset="0" stop-color="#000" stop-opacity="0.45"></stop><stop offset="1" stop-color="#000" stop-opacity="0"></stop></radialGradient><linearGradient id="b-dehydrated-garlic-flakes-rim" x1="0" y1="0" x2="0" y2="1"><stop offset="0" stop-color="#3a332c"></stop><stop offset="1" stop-color="#15120f"></stop></linearGradient><linearGradient id="b-dehydrated-garlic-flakes-body" x1="0" y1="0" x2="0" y2="1"><stop offset="0" stop-color="#221d18"></stop><stop offset="1" stop-color="#0c0a08"></stop></linearGradient><radialGradient id="b-dehydrated-garlic-flakes-inner" cx="50%" cy="35%" r="65%"><stop offset="0" stop-color="#2a2420"></stop><stop offset="1" stop-color="#100d0b"></stop></radialGradient></defs><ellipse cx="200" cy="300" rx="176" ry="42" fill="url(#b-dehydrated-garlic-flakes-shadow)"></ellipse><path d="M 44 236 C 44 300, 108 328, 200 328 C 292 328, 356 300, 356 236 Z" fill="url(#b-dehydrated-garlic-flakes-body)"></path><ellipse cx="200" cy="236" rx="156" ry="50" fill="url(#b-dehydrated-garlic-flakes-rim)"></ellipse><ellipse cx="200" cy="238" rx="136" ry="42" fill="url(#b-dehydrated-garlic-flakes-inner)"></ellipse><g><defs><radialGradient id="b-dehydrated-garlic-flakes-bed" cx="50%" cy="40%" r="70%"><stop offset="0" stop-color="#c7bc9c"></stop><stop offset="1" stop-color="#1a1714"></stop></radialGradient></defs><ellipse cx="200" cy="232" rx="130" ry="42" fill="url(#b-dehydrated-garlic-flakes-bed)"></ellipse><rect x="196.6" y="186.4" width="12.8" height="8.2" rx="1.5" transform="rotate(358.4 203.0 190.5)" fill="#e8dfc6" stroke="#c7bc9c" stroke-width="0.5"></rect><rect x="231.6" y="190.5" width="8.7" height="5.6" rx="1.5" transform="rotate(131.0 236.0 193.3)" fill="#e8dfc6" stroke="#c7bc9c" stroke-width="0.5"></rect><rect x="162.2" y="191.1" width="9.9" height="6.4" rx="1.5" transform="rotate(95.3 167.2 194.2)" fill="#e8dfc6" stroke="#c7bc9c" stroke-width="0.5"></rect><rect x="147.1" y="192.1" width="10.2" height="6.5" rx="1.5" transform="rotate(355.9 152.2 195.3)" fill="#e8dfc6" stroke="#c7bc9c" stroke-width="0.5"></rect><rect x="146.9" y="195.2" width="8.7" height="5.6" rx="1.5" transform="rotate(158.5 151.3 198.0)" fill="#e8dfc6" stroke="#c7bc9c" stroke-width="0.5"></rect><rect x="161.9" y="197.0" width="8.5" height="5.4" rx="1.5" transform="rotate(163.0 166.1 199.7)" fill="#e8dfc6" stroke="#c7bc9c" stroke-width="0.5"></rect><rect x="215.0" y="197.9" width="7.1" height="4.6" rx="1.5" transform="rotate(219.6 218.6 200.2)" fill="#e8dfc6" stroke="#c7bc9c" stroke-width="0.5"></rect><rect x="176.1" y="196.6" width="12.8" height="8.2" rx="1.5" transform="rotate(273.8 182.5 200.7)" fill="#e8dfc6" stroke="#c7bc9c" stroke-width="0.5"></rect><rect x="249.7" y="199.8" width="7.8" height="5.0" rx="1.5" transform="rotate(35.3 253.6 202.3)" fill="#e8dfc6" stroke="#c7bc9c" stroke-width="0.5"></rect><rect x="250.6" y="200.0" width="7.9" height="5.1" rx="1.5" transform="rotate(76.9 254.6 202.5)" fill="#e8dfc6" stroke="#c7bc9c" stroke-width="0.5"></rect><rect x="289.6" y="203.5" width="9.9" height="6.3" rx="1.5" transform="rotate(102.4 294.5 206.6)" fill="#f3ecd8" stroke="#c7bc9c" stroke-width="0.5"></rect><rect x="143.9" y="204.7" width="9.2" height="5.9" rx="1.5" transform="rotate(61.4 148.5 207.7)" fill="#e8dfc6" stroke="#c7bc9c" stroke-width="0.5"></rect><rect x="258.4" y="205.2" width="8.6" height="5.5" rx="1.5" transform="rotate(254.5 262.7 208.0)" fill="#e8dfc6" stroke="#c7bc9c" stroke-width="0.5"></rect><rect x="190.1" y="205.4" width="9.6" height="6.1" rx="1.5" transform="rotate(170.2 194.9 208.5)" fill="#f3ecd8" stroke="#c7bc9c" stroke-width="0.5"></rect><rect x="269.0" y="206.3" width="7.5" height="4.8" rx="1.5" transform="rotate(125.8 272.7 208.7)" fill="#f3ecd8" stroke="#c7bc9c" stroke-width="0.5"></rect><rect x="97.0" y="206.3" width="7.5" height="4.8" rx="1.5" transform="rotate(177.1 100.7 208.7)" fill="#e8dfc6" stroke="#c7bc9c" stroke-width="0.5"></rect><rect x="211.5" y="205.3" width="11.9" height="7.6" rx="1.5" transform="rotate(354.3 217.5 209.1)" fill="#e8dfc6" stroke="#c7bc9c" stroke-width="0.5"></rect><rect x="182.3" y="205.4" width="12.1" height="7.8" rx="1.5" transform="rotate(158.4 188.3 209.3)" fill="#f3ecd8" stroke="#c7bc9c" stroke-width="0.5"></rect><rect x="163.6" y="208.5" width="7.2" height="4.6" rx="1.5" transform="rotate(279.5 167.2 210.8)" fill="#e8dfc6" stroke="#c7bc9c" stroke-width="0.5"></rect><rect x="226.5" y="208.3" width="12.3" height="7.9" rx="1.5" transform="rotate(282.3 232.7 212.3)" fill="#f3ecd8" stroke="#c7bc9c" stroke-width="0.5"></rect><rect x="241.5" y="210.7" width="7.3" height="4.7" rx="1.5" transform="rotate(163.7 245.2 213.1)" fill="#e8dfc6" stroke="#c7bc9c" stroke-width="0.5"></rect><rect x="273.7" y="211.7" width="9.8" height="6.3" rx="1.5" transform="rotate(28.3 278.7 214.8)" fill="#f3ecd8" stroke="#c7bc9c" stroke-width="0.5"></rect><rect x="96.4" y="213.9" width="7.5" height="4.8" rx="1.5" transform="rotate(112.4 100.2 216.3)" fill="#e8dfc6" stroke="#c7bc9c" stroke-width="0.5"></rect><rect x="87.9" y="213.4" width="10.5" height="6.7" rx="1.5" transform="rotate(327.1 93.1 216.8)" fill="#e8dfc6" stroke="#c7bc9c" stroke-width="0.5"></rect><rect x="97.0" y="215.9" width="8.5" height="5.4" rx="1.5" transform="rotate(154.0 101.2 218.6)" fill="#e8dfc6" stroke="#c7bc9c" stroke-width="0.5"></rect><rect x="204.6" y="216.8" width="7.2" height="4.6" rx="1.5" transform="rotate(251.5 208.2 219.1)" fill="#e8dfc6" stroke="#c7bc9c" stroke-width="0.5"></rect><rect x="146.5" y="216.0" width="10.8" height="6.9" rx="1.5" transform="rotate(281.4 151.9 219.4)" fill="#f3ecd8" stroke="#c7bc9c" stroke-width="0.5"></rect><rect x="258.2" y="217.3" width="8.0" height="5.1" rx="1.5" transform="rotate(211.0 262.2 219.8)" fill="#e8dfc6" stroke="#c7bc9c" stroke-width="0.5"></rect><rect x="124.3" y="220.2" width="10.6" height="6.8" rx="1.5" transform="rotate(348.7 129.7 223.6)" fill="#e8dfc6" stroke="#c7bc9c" stroke-width="0.5"></rect><rect x="313.2" y="219.6" width="12.8" height="8.2" rx="1.5" transform="rotate(147.2 319.6 223.7)" fill="#f3ecd8" stroke="#c7bc9c" stroke-width="0.5"></rect><rect x="228.4" y="220.5" width="12.3" height="7.9" rx="1.5" transform="rotate(357.0 234.5 224.5)" fill="#e8dfc6" stroke="#c7bc9c" stroke-width="0.5"></rect><rect x="193.4" y="221.8" width="8.8" height="5.6" rx="1.5" transform="rotate(9.3 197.8 224.6)" fill="#e8dfc6" stroke="#c7bc9c" stroke-width="0.5"></rect><rect x="73.6" y="221.8" width="8.9" height="5.7" rx="1.5" transform="rotate(312.8 78.1 224.6)" fill="#f3ecd8" stroke="#c7bc9c" stroke-width="0.5"></rect><rect x="245.4" y="221.9" width="8.8" height="5.6" rx="1.5" transform="rotate(228.6 249.8 224.7)" fill="#e8dfc6" stroke="#c7bc9c" stroke-width="0.5"></rect><rect x="307.4" y="222.3" width="12.9" height="8.3" rx="1.5" transform="rotate(108.8 313.8 226.4)" fill="#e8dfc6" stroke="#c7bc9c" stroke-width="0.5"></rect><rect x="168.4" y="222.8" width="11.5" height="7.3" rx="1.5" transform="rotate(215.1 174.1 226.4)" fill="#e8dfc6" stroke="#c7bc9c" stroke-width="0.5"></rect><rect x="227.9" y="224.4" width="9.6" height="6.2" rx="1.5" transform="rotate(312.5 232.7 227.5)" fill="#e8dfc6" stroke="#c7bc9c" stroke-width="0.5"></rect><rect x="185.4" y="225.0" width="8.8" height="5.6" rx="1.5" transform="rotate(109.6 189.8 227.9)" fill="#b8862f" stroke="#c7bc9c" stroke-width="0.5"></rect><rect x="238.0" y="225.5" width="7.7" height="4.9" rx="1.5" transform="rotate(304.5 241.8 227.9)" fill="#e8dfc6" stroke="#c7bc9c" stroke-width="0.5"></rect><rect x="267.4" y="226.0" width="8.9" height="5.7" rx="1.5" transform="rotate(15.4 271.8 228.9)" fill="#b8862f" stroke="#c7bc9c" stroke-width="0.5"></rect><rect x="267.4" y="226.5" width="7.6" height="4.9" rx="1.5" transform="rotate(263.3 271.2 228.9)" fill="#e8dfc6" stroke="#c7bc9c" stroke-width="0.5"></rect><rect x="78.1" y="225.7" width="10.3" height="6.6" rx="1.5" transform="rotate(267.4 83.3 229.0)" fill="#e8dfc6" stroke="#c7bc9c" stroke-width="0.5"></rect><rect x="131.1" y="225.1" width="12.0" height="7.7" rx="1.5" transform="rotate(105.6 137.2 229.0)" fill="#f3ecd8" stroke="#c7bc9c" stroke-width="0.5"></rect><rect x="149.2" y="225.5" width="12.7" height="8.1" rx="1.5" transform="rotate(155.8 155.5 229.5)" fill="#e8dfc6" stroke="#c7bc9c" stroke-width="0.5"></rect><rect x="130.0" y="227.4" width="7.1" height="4.5" rx="1.5" transform="rotate(139.5 133.5 229.7)" fill="#e8dfc6" stroke="#c7bc9c" stroke-width="0.5"></rect><rect x="102.4" y="226.0" width="12.8" height="8.2" rx="1.5" transform="rotate(207.0 108.8 230.1)" fill="#e8dfc6" stroke="#c7bc9c" stroke-width="0.5"></rect><rect x="314.5" y="226.9" width="10.5" height="6.7" rx="1.5" transform="rotate(180.9 319.8 230.2)" fill="#e8dfc6" stroke="#c7bc9c" stroke-width="0.5"></rect><rect x="296.1" y="226.1" width="13.0" height="8.3" rx="1.5" transform="rotate(219.2 302.6 230.3)" fill="#b8862f" stroke="#c7bc9c" stroke-width="0.5"></rect><rect x="125.5" y="228.3" width="8.6" height="5.5" rx="1.5" transform="rotate(308.8 129.8 231.1)" fill="#b8862f" stroke="#c7bc9c" stroke-width="0.5"></rect><rect x="132.2" y="227.5" width="12.9" height="8.3" rx="1.5" transform="rotate(236.8 138.6 231.7)" fill="#e8dfc6" stroke="#c7bc9c" stroke-width="0.5"></rect><rect x="288.3" y="229.1" width="8.0" height="5.1" rx="1.5" transform="rotate(70.3 292.3 231.7)" fill="#b8862f" stroke="#c7bc9c" stroke-width="0.5"></rect><rect x="260.6" y="228.8" width="12.2" height="7.8" rx="1.5" transform="rotate(321.5 266.7 232.7)" fill="#f3ecd8" stroke="#c7bc9c" stroke-width="0.5"></rect><rect x="302.2" y="229.9" width="8.6" height="5.5" rx="1.5" transform="rotate(126.0 306.5 232.7)" fill="#b8862f" stroke="#c7bc9c" stroke-width="0.5"></rect><rect x="124.9" y="230.3" width="8.7" height="5.6" rx="1.5" transform="rotate(273.4 129.2 233.1)" fill="#f3ecd8" stroke="#c7bc9c" stroke-width="0.5"></rect><rect x="304.3" y="230.4" width="10.2" height="6.5" rx="1.5" transform="rotate(44.9 309.4 233.6)" fill="#e8dfc6" stroke="#c7bc9c" stroke-width="0.5"></rect><rect x="130.0" y="231.1" width="8.4" height="5.4" rx="1.5" transform="rotate(337.4 134.2 233.7)" fill="#e8dfc6" stroke="#c7bc9c" stroke-width="0.5"></rect><rect x="130.3" y="230.3" width="12.5" height="8.0" rx="1.5" transform="rotate(164.1 136.6 234.4)" fill="#e8dfc6" stroke="#c7bc9c" stroke-width="0.5"></rect><rect x="144.3" y="232.1" width="7.5" height="4.8" rx="1.5" transform="rotate(92.0 148.1 234.5)" fill="#b8862f" stroke="#c7bc9c" stroke-width="0.5"></rect><rect x="299.3" y="231.5" width="9.6" height="6.2" rx="1.5" transform="rotate(116.3 304.1 234.6)" fill="#b8862f" stroke="#c7bc9c" stroke-width="0.5"></rect><rect x="255.5" y="232.5" width="7.6" height="4.9" rx="1.5" transform="rotate(36.3 259.3 234.9)" fill="#e8dfc6" stroke="#c7bc9c" stroke-width="0.5"></rect><rect x="288.2" y="232.3" width="11.2" height="7.2" rx="1.5" transform="rotate(52.5 293.8 235.9)" fill="#e8dfc6" stroke="#c7bc9c" stroke-width="0.5"></rect><rect x="245.4" y="233.4" width="10.5" height="6.7" rx="1.5" transform="rotate(180.7 250.7 236.8)" fill="#e8dfc6" stroke="#c7bc9c" stroke-width="0.5"></rect><rect x="167.4" y="234.4" width="8.9" height="5.7" rx="1.5" transform="rotate(325.0 171.9 237.2)" fill="#e8dfc6" stroke="#c7bc9c" stroke-width="0.5"></rect><rect x="179.1" y="234.5" width="11.6" height="7.4" rx="1.5" transform="rotate(104.5 184.9 238.2)" fill="#f3ecd8" stroke="#c7bc9c" stroke-width="0.5"></rect><rect x="219.2" y="234.9" width="11.0" height="7.0" rx="1.5" transform="rotate(202.2 224.6 238.4)" fill="#f3ecd8" stroke="#c7bc9c" stroke-width="0.5"></rect><rect x="204.8" y="236.4" width="7.4" height="4.7" rx="1.5" transform="rotate(166.1 208.5 238.7)" fill="#b8862f" stroke="#c7bc9c" stroke-width="0.5"></rect><rect x="221.1" y="236.3" width="8.4" height="5.4" rx="1.5" transform="rotate(58.5 225.3 239.0)" fill="#e8dfc6" stroke="#c7bc9c" stroke-width="0.5"></rect><rect x="131.6" y="236.1" width="9.4" height="6.0" rx="1.5" transform="rotate(217.0 136.4 239.2)" fill="#e8dfc6" stroke="#c7bc9c" stroke-width="0.5"></rect><rect x="275.4" y="238.5" width="8.7" height="5.6" rx="1.5" transform="rotate(178.0 279.7 241.3)" fill="#e8dfc6" stroke="#c7bc9c" stroke-width="0.5"></rect><rect x="87.7" y="238.2" width="10.7" height="6.9" rx="1.5" transform="rotate(96.7 93.1 241.6)" fill="#e8dfc6" stroke="#c7bc9c" stroke-width="0.5"></rect><rect x="131.6" y="240.6" width="8.2" height="5.2" rx="1.5" transform="rotate(277.0 135.6 243.2)" fill="#f3ecd8" stroke="#c7bc9c" stroke-width="0.5"></rect><rect x="154.2" y="240.0" width="12.0" height="7.7" rx="1.5" transform="rotate(347.2 160.2 243.9)" fill="#e8dfc6" stroke="#c7bc9c" stroke-width="0.5"></rect><rect x="149.0" y="242.3" width="7.2" height="4.6" rx="1.5" transform="rotate(246.1 152.6 244.6)" fill="#f3ecd8" stroke="#c7bc9c" stroke-width="0.5"></rect><rect x="203.4" y="243.1" width="8.5" height="5.5" rx="1.5" transform="rotate(77.4 207.7 245.9)" fill="#e8dfc6" stroke="#c7bc9c" stroke-width="0.5"></rect><rect x="117.8" y="243.0" width="10.0" height="6.4" rx="1.5" transform="rotate(41.4 122.8 246.2)" fill="#e8dfc6" stroke="#c7bc9c" stroke-width="0.5"></rect><rect x="135.0" y="244.2" width="9.2" height="5.9" rx="1.5" transform="rotate(124.0 139.6 247.2)" fill="#e8dfc6" stroke="#c7bc9c" stroke-width="0.5"></rect><rect x="205.8" y="243.8" width="12.5" height="8.0" rx="1.5" transform="rotate(211.4 212.0 247.8)" fill="#f3ecd8" stroke="#c7bc9c" stroke-width="0.5"></rect><rect x="237.0" y="245.9" width="9.2" height="5.9" rx="1.5" transform="rotate(338.0 241.7 248.8)" fill="#f3ecd8" stroke="#c7bc9c" stroke-width="0.5"></rect><rect x="157.9" y="251.1" width="8.4" height="5.4" rx="1.5" transform="rotate(50.3 162.1 253.8)" fill="#f3ecd8" stroke="#c7bc9c" stroke-width="0.5"></rect><rect x="204.2" y="250.4" width="11.4" height="7.3" rx="1.5" transform="rotate(358.4 209.9 254.1)" fill="#e8dfc6" stroke="#c7bc9c" stroke-width="0.5"></rect><rect x="146.9" y="252.0" width="8.4" height="5.4" rx="1.5" transform="rotate(262.4 151.1 254.7)" fill="#e8dfc6" stroke="#c7bc9c" stroke-width="0.5"></rect><rect x="245.8" y="254.8" width="9.4" height="6.0" rx="1.5" transform="rotate(188.9 250.5 257.9)" fill="#f3ecd8" stroke="#c7bc9c" stroke-width="0.5"></rect><rect x="221.1" y="254.0" width="12.7" height="8.1" rx="1.5" transform="rotate(243.7 227.5 258.1)" fill="#e8dfc6" stroke="#c7bc9c" stroke-width="0.5"></rect><rect x="145.8" y="258.0" width="8.1" height="5.2" rx="1.5" transform="rotate(30.9 149.8 260.6)" fill="#e8dfc6" stroke="#c7bc9c" stroke-width="0.5"></rect></g><path d="M 44 236 C 44 262, 108 286, 200 286 C 292 286, 356 262, 356 236 C 356 250, 292 268, 200 268 C 108 268, 44 250, 44 236 Z" fill="url(#b-dehydrated-garlic-flakes-rim)"></path><path d="M 60 226 C 96 196, 150 186, 200 186 C 250 186, 304 196, 340 226" fill="none" stroke="#fbf8f1" stroke-opacity="0.14" stroke-width="3"></path></svg>