<?xml version="1.0" encoding="UTF-8"?>
<svg xmlns="http://www.w3.org/2000/svg" viewBox="0 0 400 400" class="" role="presentation" aria-hidden="true" data-bowl="guava-powder"><defs><radialGradient id="b-guava-powder-shadow" cx="50%" cy="50%" r="50%"><stop offset="0" stop-color="#000" stop-opacity="0.45"></stop><stop offset="1" stop-color="#000" stop-opacity="0"></stop></radialGradient><linearGradient id="b-guava-powder-rim" x1="0" y1="0" x2="0" y2="1"><stop offset="0" stop-color="#3a332c"></stop><stop offset="1" stop-color="#15120f"></stop></linearGradient><linearGradient id="b-guava-powder-body" x1="0" y1="0" x2="0" y2="1"><stop offset="0" stop-color="#221d18"></stop><stop offset="1" stop-color="#0c0a08"></stop></linearGradient><radialGradient id="b-guava-powder-inner" cx="50%" cy="35%" r="65%"><stop offset="0" stop-color="#2a2420"></stop><stop offset="1" stop-color="#100d0b"></stop></radialGradient></defs><ellipse cx="200" cy="300" rx="176" ry="42" fill="url(#b-guava-powder-shadow)"></ellipse><path d="M 44 236 C 44 300, 108 328, 200 328 C 292 328, 356 300, 356 236 Z" fill="url(#b-guava-powder-body)"></path><ellipse cx="200" cy="236" rx="156" ry="50" fill="url(#b-guava-powder-rim)"></ellipse><ellipse cx="200" cy="238" rx="136" ry="42" fill="url(#b-guava-powder-inner)"></ellipse><g><defs><radialGradient id="b-guava-powder-heap" cx="42%" cy="28%" r="80%"><stop offset="0" stop-color="#e8927a"></stop><stop offset="0.5" stop-color="#f2b6a0"></stop><stop offset="1" stop-color="#d98d74"></stop></radialGradient><pattern id="b-guava-powder-tex" patternUnits="userSpaceOnUse" width="128" height="128"><image href="/images/grain.png" width="128" height="128"></image></pattern><clipPath id="b-guava-powder-mound-clip"><path d="M 70 262 C 96 226, 128 182, 176 158 C 196 149, 212 150, 232 160 C 274 182, 302 222, 330 262 Z"></path></clipPath></defs><path d="M 70 262 C 96 226, 128 182, 176 158 C 196 149, 212 150, 232 160 C 274 182, 302 222, 330 262 Z" fill="url(#b-guava-powder-heap)"></path><ellipse cx="200" cy="248" rx="112" ry="10" fill="#d98d74" opacity="0.35"></ellipse><path d="M 148 186 C 170 168, 198 160, 226 166" fill="none" stroke="#f6f1e4" stroke-opacity="0.32" stroke-width="6" stroke-linecap="round"></path><circle cx="350.1" cy="295.8" r="1.4" fill="#f2b6a0" opacity="0.7"></circle><circle cx="284.5" cy="306.1" r="1.6" fill="#f2b6a0" opacity="0.7"></circle><circle cx="311.2" cy="307.1" r="2.6" fill="#f2b6a0" opacity="0.7"></circle><circle cx="167.7" cy="326.5" r="3.0" fill="#f2b6a0" opacity="0.7"></circle><circle cx="209.2" cy="317.4" r="3.0" fill="#f2b6a0" opacity="0.7"></circle><circle cx="134.5" cy="314.1" r="2.6" fill="#f2b6a0" opacity="0.7"></circle><circle cx="347.7" cy="304.4" r="1.7" fill="#f2b6a0" opacity="0.7"></circle><circle cx="283.0" cy="315.9" r="2.2" fill="#f2b6a0" opacity="0.7"></circle><circle cx="87.0" cy="302.8" r="3.0" fill="#f2b6a0" opacity="0.7"></circle><circle cx="202.7" cy="323.0" r="1.3" fill="#f2b6a0" opacity="0.7"></circle><circle cx="243.8" cy="329.0" r="2.7" fill="#f2b6a0" opacity="0.7"></circle><circle cx="254.9" cy="293.3" r="1.9" fill="#f2b6a0" opacity="0.7"></circle><circle cx="305.3" cy="322.0" r="2.9" fill="#f2b6a0" opacity="0.7"></circle><circle cx="181.7" cy="298.7" r="2.3" fill="#f2b6a0" opacity="0.7"></circle><circle cx="370.0" cy="315.5" r="1.1" fill="#f2b6a0" opacity="0.7"></circle><circle cx="169.7" cy="297.0" r="2.7" fill="#f2b6a0" opacity="0.7"></circle><circle cx="162.3" cy="325.2" r="3.2" fill="#f2b6a0" opacity="0.7"></circle><circle cx="172.9" cy="305.2" r="1.9" fill="#f2b6a0" opacity="0.7"></circle><circle cx="189.8" cy="319.8" r="2.6" fill="#f2b6a0" opacity="0.7"></circle><circle cx="76.6" cy="309.0" r="3.0" fill="#f2b6a0" opacity="0.7"></circle><circle cx="100.0" cy="300.5" r="2.7" fill="#f2b6a0" opacity="0.7"></circle><circle cx="93.5" cy="321.2" r="3.1" fill="#f2b6a0" opacity="0.7"></circle></g><path d="M 44 236 C 44 262, 108 286, 200 286 C 292 286, 356 262, 356 236 C 356 250, 292 268, 200 268 C 108 268, 44 250, 44 236 Z" fill="url(#b-guava-powder-rim)"></path><path d="M 60 226 C 96 196, 150 186, 200 186 C 250 186, 304 196, 340 226" fill="none" stroke="#fbf8f1" stroke-opacity="0.14" stroke-width="3"></path></svg>