<?xml version="1.0" encoding="UTF-8"?>
<svg xmlns="http://www.w3.org/2000/svg" viewBox="0 0 400 400" class="" role="presentation" aria-hidden="true" data-bowl="raw-mango-powder-amchur"><defs><filter id="b-raw-mango-powder-amchur-soft" x="-20%" y="-40%" width="140%" height="180%"><feGaussianBlur stdDeviation="5"></feGaussianBlur></filter><filter id="b-raw-mango-powder-amchur-ground" x="-20%" y="-50%" width="140%" height="200%"><feGaussianBlur stdDeviation="9"></feGaussianBlur></filter><filter id="b-raw-mango-powder-amchur-stone" x="0" y="0" width="100%" height="100%" color-interpolation-filters="sRGB"><feTurbulence type="fractalNoise" baseFrequency="0.75" numOctaves="2" seed="4044" result="n"></feTurbulence><feColorMatrix in="n" type="matrix" values="0.33 0.33 0.33 0 0  0.33 0.33 0.33 0 0  0.33 0.33 0.33 0 0  0 0 0 0 0.2" result="g"></feColorMatrix><feBlend in="g" in2="SourceGraphic" mode="overlay" result="b"></feBlend><feComposite in="b" in2="SourceGraphic" operator="in"></feComposite></filter><linearGradient id="b-raw-mango-powder-amchur-body" x1="0.1" y1="0" x2="0.9" y2="1"><stop offset="0" stop-color="#3d352e"></stop><stop offset="0.45" stop-color="#1a1612"></stop><stop offset="1" stop-color="#070605"></stop></linearGradient><linearGradient id="b-raw-mango-powder-amchur-rim" x1="0" y1="0" x2="1" y2="1"><stop offset="0" stop-color="#5a5047"></stop><stop offset="0.5" stop-color="#2a2420"></stop><stop offset="1" stop-color="#14110e"></stop></linearGradient><linearGradient id="b-raw-mango-powder-amchur-wall" x1="0" y1="0" x2="0" y2="1"><stop offset="0" stop-color="#2e2823"></stop><stop offset="0.55" stop-color="#100d0b"></stop><stop offset="1" stop-color="#070605"></stop></linearGradient></defs><ellipse cx="208" cy="304" rx="172" ry="38" fill="#000" opacity="0.42" filter="url(#b-raw-mango-powder-amchur-ground)"></ellipse><ellipse cx="200" cy="302" rx="150" ry="24" fill="#000" opacity="0.35" filter="url(#b-raw-mango-powder-amchur-soft)"></ellipse><path d="M 44 236 C 44 300, 108 328, 200 328 C 292 328, 356 300, 356 236 Z" fill="url(#b-raw-mango-powder-amchur-body)" filter="url(#b-raw-mango-powder-amchur-stone)"></path><ellipse cx="112" cy="266" rx="56" ry="26" fill="#fff" opacity="0.06" filter="url(#b-raw-mango-powder-amchur-soft)"></ellipse><ellipse cx="200" cy="236" rx="156" ry="50" fill="url(#b-raw-mango-powder-amchur-rim)" filter="url(#b-raw-mango-powder-amchur-stone)"></ellipse><ellipse cx="200" cy="237" rx="146" ry="46" fill="#0c0a08" opacity="0.55"></ellipse><ellipse cx="200" cy="238" rx="136" ry="42" fill="url(#b-raw-mango-powder-amchur-wall)"></ellipse><path d="M 56 230 C 90 198, 146 186, 200 186 C 236 186, 274 191, 306 202" fill="none" stroke="#fff" stroke-opacity="0.16" stroke-width="5" stroke-linecap="round" filter="url(#b-raw-mango-powder-amchur-soft)"></path><path d="M 60 228 C 94 198, 148 188, 200 188 C 234 188, 268 192, 298 202" fill="none" stroke="#fff" stroke-opacity="0.28" stroke-width="1.4" stroke-linecap="round"></path><g><defs><radialGradient id="b-raw-mango-powder-amchur-dome" gradientUnits="userSpaceOnUse" cx="152" cy="180" r="215" fx="140" fy="170"><stop offset="0" stop-color="#c8d47e"></stop><stop offset="0.36" stop-color="#b9c85a"></stop><stop offset="0.78" stop-color="#828c3f"></stop><stop offset="1" stop-color="#4e5820"></stop></radialGradient><radialGradient id="b-raw-mango-powder-amchur-bed" gradientUnits="userSpaceOnUse" cx="200" cy="238" r="140"><stop offset="0" stop-color="#b9c85a"></stop><stop offset="0.72" stop-color="#828c3f"></stop><stop offset="1" stop-color="#4e5820"></stop></radialGradient><clipPath id="b-raw-mango-powder-amchur-cavclip"><ellipse cx="200" cy="238" rx="138" ry="44"></ellipse><path d="M 62 252 C 88 214, 128 172, 176 160 C 204 152, 236 158, 262 176 C 296 200, 322 226, 338 252 Z"></path></clipPath><filter id="b-raw-mango-powder-amchur-surf" x="-8%" y="-14%" width="116%" height="128%" color-interpolation-filters="sRGB"><feTurbulence type="fractalNoise" baseFrequency="0.035" numOctaves="2" seed="4035" result="warp"></feTurbulence><feDisplacementMap in="SourceGraphic" in2="warp" scale="9" xChannelSelector="R" yChannelSelector="G" result="shape"></feDisplacementMap><feTurbulence type="fractalNoise" baseFrequency="0.95" numOctaves="2" seed="4036" result="fine"></feTurbulence><feColorMatrix in="fine" type="matrix" values="0.33 0.33 0.33 0 0  0.33 0.33 0.33 0 0  0.33 0.33 0.33 0 0  0 0 0 0 0.26" result="fineG"></feColorMatrix><feTurbulence type="fractalNoise" baseFrequency="0.045" numOctaves="3" seed="4037" result="mottle"></feTurbulence><feColorMatrix in="mottle" type="matrix" values="0.33 0.33 0.33 0 0  0.33 0.33 0.33 0 0  0.33 0.33 0.33 0 0  0 0 0 0 0.32" result="mottleG"></feColorMatrix><feBlend in="fineG" in2="shape" mode="overlay" result="s1"></feBlend><feBlend in="mottleG" in2="s1" mode="overlay" result="s2"></feBlend><feComposite in="s2" in2="shape" operator="in"></feComposite></filter></defs><g clip-path="url(#b-raw-mango-powder-amchur-cavclip)"><g filter="url(#b-raw-mango-powder-amchur-surf)"><ellipse cx="200" cy="240" rx="136" ry="42" fill="url(#b-raw-mango-powder-amchur-bed)"></ellipse></g><ellipse cx="200" cy="236" rx="136" ry="42" fill="none" stroke="#000" stroke-width="18" opacity="0.55" filter="url(#b-raw-mango-powder-amchur-soft)"></ellipse><g filter="url(#b-raw-mango-powder-amchur-surf)"><path d="M 62 252 C 88 214, 128 172, 176 160 C 204 152, 236 158, 262 176 C 296 200, 322 226, 338 252 Z" fill="url(#b-raw-mango-powder-amchur-dome)"></path><g filter="url(#b-raw-mango-powder-amchur-soft)"><ellipse cx="192.8" cy="207.7" rx="19.3" ry="4.4" fill="#c8d47e" opacity="0.5"></ellipse><ellipse cx="183.2" cy="220.1" rx="16.7" ry="6.8" fill="#c8d47e" opacity="0.5"></ellipse><ellipse cx="170.4" cy="203.0" rx="21.7" ry="7.3" fill="#828c3f" opacity="0.42"></ellipse><ellipse cx="268.0" cy="226.2" rx="7.8" ry="3.7" fill="#c8d47e" opacity="0.5"></ellipse><ellipse cx="165.4" cy="229.5" rx="14.3" ry="7.5" fill="#828c3f" opacity="0.42"></ellipse><ellipse cx="265.0" cy="190.5" rx="15.5" ry="8.5" fill="#828c3f" opacity="0.42"></ellipse><ellipse cx="234.9" cy="201.5" rx="12.8" ry="7.9" fill="#c8d47e" opacity="0.5"></ellipse><ellipse cx="159.0" cy="227.6" rx="11.2" ry="5.0" fill="#c8d47e" opacity="0.5"></ellipse><ellipse cx="142.2" cy="209.1" rx="12.0" ry="4.1" fill="#828c3f" opacity="0.42"></ellipse><ellipse cx="176.2" cy="188.3" rx="11.8" ry="3.8" fill="#c8d47e" opacity="0.5"></ellipse><ellipse cx="148.3" cy="192.3" rx="9.5" ry="3.6" fill="#828c3f" opacity="0.42"></ellipse></g></g></g><defs><radialGradient id="b-raw-mango-powder-amchur-sheen" gradientUnits="userSpaceOnUse" cx="150" cy="186" r="120"><stop offset="0" stop-color="#fff" stop-opacity="0.22"></stop><stop offset="1" stop-color="#fff" stop-opacity="0"></stop></radialGradient><radialGradient id="b-raw-mango-powder-amchur-vig" gradientUnits="userSpaceOnUse" cx="200" cy="232" r="150"><stop offset="0.55" stop-color="#000" stop-opacity="0"></stop><stop offset="1" stop-color="#000" stop-opacity="0.55"></stop></radialGradient></defs><g clip-path="url(#b-raw-mango-powder-amchur-cavclip)"><ellipse cx="200" cy="232" rx="140" ry="48" fill="url(#b-raw-mango-powder-amchur-sheen)"></ellipse><ellipse cx="200" cy="232" rx="140" ry="48" fill="url(#b-raw-mango-powder-amchur-vig)"></ellipse></g><circle cx="322.4" cy="309.3" r="2.7" fill="#828c3f" opacity="0.7"></circle><circle cx="165.3" cy="325.0" r="2.5" fill="#828c3f" opacity="0.7"></circle><circle cx="347.4" cy="321.3" r="2.2" fill="#828c3f" opacity="0.7"></circle><circle cx="330.2" cy="316.1" r="1.7" fill="#b9c85a" opacity="0.7"></circle><circle cx="282.7" cy="325.9" r="2.5" fill="#828c3f" opacity="0.7"></circle><circle cx="339.6" cy="330.4" r="1.7" fill="#b9c85a" opacity="0.7"></circle><circle cx="179.4" cy="314.1" r="1.0" fill="#b9c85a" opacity="0.7"></circle><circle cx="338.8" cy="311.7" r="2.6" fill="#828c3f" opacity="0.7"></circle><circle cx="202.4" cy="306.2" r="1.2" fill="#b9c85a" opacity="0.7"></circle><circle cx="186.8" cy="331.1" r="1.0" fill="#b9c85a" opacity="0.7"></circle><circle cx="133.9" cy="326.7" r="2.0" fill="#b9c85a" opacity="0.7"></circle><circle cx="145.5" cy="316.0" r="2.4" fill="#828c3f" opacity="0.7"></circle><circle cx="306.1" cy="296.0" r="2.6" fill="#828c3f" opacity="0.7"></circle><circle cx="158.1" cy="304.0" r="2.6" fill="#828c3f" opacity="0.7"></circle><circle cx="131.9" cy="301.7" r="2.3" fill="#828c3f" opacity="0.7"></circle><circle cx="320.3" cy="297.0" r="2.4" fill="#828c3f" opacity="0.7"></circle><circle cx="152.4" cy="310.6" r="1.4" fill="#b9c85a" opacity="0.7"></circle><circle cx="352.0" cy="315.1" r="2.7" fill="#828c3f" opacity="0.7"></circle><circle cx="50.9" cy="300.4" r="2.0" fill="#b9c85a" opacity="0.7"></circle><circle cx="50.7" cy="297.1" r="1.8" fill="#b9c85a" opacity="0.7"></circle><circle cx="237.4" cy="295.3" r="2.4" fill="#828c3f" opacity="0.7"></circle><circle cx="338.3" cy="292.2" r="1.2" fill="#b9c85a" opacity="0.7"></circle><circle cx="90.3" cy="317.1" r="1.2" fill="#b9c85a" opacity="0.7"></circle><circle cx="134.9" cy="308.9" r="2.3" fill="#828c3f" opacity="0.7"></circle><circle cx="231.8" cy="313.1" r="1.1" fill="#b9c85a" opacity="0.7"></circle><circle cx="366.3" cy="333.1" r="1.4" fill="#b9c85a" opacity="0.7"></circle><ellipse cx="136" cy="212" rx="26" ry="6" fill="#b9c85a" opacity="0.35" filter="url(#b-raw-mango-powder-amchur-soft)"></ellipse></g><path d="M 44 236 C 44 262, 108 286, 200 286 C 292 286, 356 262, 356 236 C 356 250, 292 268, 200 268 C 108 268, 44 250, 44 236 Z" fill="url(#b-raw-mango-powder-amchur-rim)" filter="url(#b-raw-mango-powder-amchur-stone)"></path><path d="M 64 246 C 100 262, 150 270, 200 270 C 250 270, 300 262, 336 246" fill="none" stroke="#000" stroke-opacity="0.35" stroke-width="6" filter="url(#b-raw-mango-powder-amchur-soft)"></path></svg>