<?xml version="1.0" encoding="UTF-8"?>
<svg xmlns="http://www.w3.org/2000/svg" viewBox="0 0 400 400" class="" role="presentation" aria-hidden="true" data-bowl="spinach-powder"><defs><filter id="b-spinach-powder-soft" x="-20%" y="-40%" width="140%" height="180%"><feGaussianBlur stdDeviation="5"></feGaussianBlur></filter><filter id="b-spinach-powder-ground" x="-20%" y="-50%" width="140%" height="200%"><feGaussianBlur stdDeviation="9"></feGaussianBlur></filter><filter id="b-spinach-powder-stone" x="0" y="0" width="100%" height="100%" color-interpolation-filters="sRGB"><feTurbulence type="fractalNoise" baseFrequency="0.75" numOctaves="2" seed="7415" result="n"></feTurbulence><feColorMatrix in="n" type="matrix" values="0.33 0.33 0.33 0 0  0.33 0.33 0.33 0 0  0.33 0.33 0.33 0 0  0 0 0 0 0.2" result="g"></feColorMatrix><feBlend in="g" in2="SourceGraphic" mode="overlay" result="b"></feBlend><feComposite in="b" in2="SourceGraphic" operator="in"></feComposite></filter><linearGradient id="b-spinach-powder-body" x1="0.1" y1="0" x2="0.9" y2="1"><stop offset="0" stop-color="#3d352e"></stop><stop offset="0.45" stop-color="#1a1612"></stop><stop offset="1" stop-color="#070605"></stop></linearGradient><linearGradient id="b-spinach-powder-rim" x1="0" y1="0" x2="1" y2="1"><stop offset="0" stop-color="#5a5047"></stop><stop offset="0.5" stop-color="#2a2420"></stop><stop offset="1" stop-color="#14110e"></stop></linearGradient><linearGradient id="b-spinach-powder-wall" x1="0" y1="0" x2="0" y2="1"><stop offset="0" stop-color="#2e2823"></stop><stop offset="0.55" stop-color="#100d0b"></stop><stop offset="1" stop-color="#070605"></stop></linearGradient></defs><ellipse cx="208" cy="304" rx="172" ry="38" fill="#000" opacity="0.42" filter="url(#b-spinach-powder-ground)"></ellipse><ellipse cx="200" cy="302" rx="150" ry="24" fill="#000" opacity="0.35" filter="url(#b-spinach-powder-soft)"></ellipse><path d="M 44 236 C 44 300, 108 328, 200 328 C 292 328, 356 300, 356 236 Z" fill="url(#b-spinach-powder-body)" filter="url(#b-spinach-powder-stone)"></path><ellipse cx="112" cy="266" rx="56" ry="26" fill="#fff" opacity="0.06" filter="url(#b-spinach-powder-soft)"></ellipse><ellipse cx="200" cy="236" rx="156" ry="50" fill="url(#b-spinach-powder-rim)" filter="url(#b-spinach-powder-stone)"></ellipse><ellipse cx="200" cy="237" rx="146" ry="46" fill="#0c0a08" opacity="0.55"></ellipse><ellipse cx="200" cy="238" rx="136" ry="42" fill="url(#b-spinach-powder-wall)"></ellipse><path d="M 56 230 C 90 198, 146 186, 200 186 C 236 186, 274 191, 306 202" fill="none" stroke="#fff" stroke-opacity="0.16" stroke-width="5" stroke-linecap="round" filter="url(#b-spinach-powder-soft)"></path><path d="M 60 228 C 94 198, 148 188, 200 188 C 234 188, 268 192, 298 202" fill="none" stroke="#fff" stroke-opacity="0.28" stroke-width="1.4" stroke-linecap="round"></path><g><defs><radialGradient id="b-spinach-powder-dome" gradientUnits="userSpaceOnUse" cx="152" cy="180" r="215" fx="140" fy="170"><stop offset="0" stop-color="#5d8c65"></stop><stop offset="0.36" stop-color="#2f6b3a"></stop><stop offset="0.78" stop-color="#214b29"></stop><stop offset="1" stop-color="#112916"></stop></radialGradient><radialGradient id="b-spinach-powder-bed" gradientUnits="userSpaceOnUse" cx="200" cy="238" r="140"><stop offset="0" stop-color="#2f6b3a"></stop><stop offset="0.72" stop-color="#214b29"></stop><stop offset="1" stop-color="#112916"></stop></radialGradient><clipPath id="b-spinach-powder-cavclip"><ellipse cx="200" cy="238" rx="138" ry="44"></ellipse><path d="M 62 252 C 88 214, 128 172, 176 160 C 204 152, 236 158, 262 176 C 296 200, 322 226, 338 252 Z"></path></clipPath><filter id="b-spinach-powder-surf" x="-8%" y="-14%" width="116%" height="128%" color-interpolation-filters="sRGB"><feTurbulence type="fractalNoise" baseFrequency="0.035" numOctaves="2" seed="7406" result="warp"></feTurbulence><feDisplacementMap in="SourceGraphic" in2="warp" scale="9" xChannelSelector="R" yChannelSelector="G" result="shape"></feDisplacementMap><feTurbulence type="fractalNoise" baseFrequency="0.95" numOctaves="2" seed="7407" result="fine"></feTurbulence><feColorMatrix in="fine" type="matrix" values="0.33 0.33 0.33 0 0  0.33 0.33 0.33 0 0  0.33 0.33 0.33 0 0  0 0 0 0 0.26" result="fineG"></feColorMatrix><feTurbulence type="fractalNoise" baseFrequency="0.045" numOctaves="3" seed="7408" result="mottle"></feTurbulence><feColorMatrix in="mottle" type="matrix" values="0.33 0.33 0.33 0 0  0.33 0.33 0.33 0 0  0.33 0.33 0.33 0 0  0 0 0 0 0.32" result="mottleG"></feColorMatrix><feBlend in="fineG" in2="shape" mode="overlay" result="s1"></feBlend><feBlend in="mottleG" in2="s1" mode="overlay" result="s2"></feBlend><feComposite in="s2" in2="shape" operator="in"></feComposite></filter></defs><g clip-path="url(#b-spinach-powder-cavclip)"><g filter="url(#b-spinach-powder-surf)"><ellipse cx="200" cy="240" rx="136" ry="42" fill="url(#b-spinach-powder-bed)"></ellipse></g><ellipse cx="200" cy="236" rx="136" ry="42" fill="none" stroke="#000" stroke-width="18" opacity="0.55" filter="url(#b-spinach-powder-soft)"></ellipse><g filter="url(#b-spinach-powder-surf)"><path d="M 62 252 C 88 214, 128 172, 176 160 C 204 152, 236 158, 262 176 C 296 200, 322 226, 338 252 Z" fill="url(#b-spinach-powder-dome)"></path><g filter="url(#b-spinach-powder-soft)"><ellipse cx="135.5" cy="179.9" rx="12.4" ry="6.6" fill="#214b29" opacity="0.42"></ellipse><ellipse cx="279.6" cy="182.7" rx="7.8" ry="8.3" fill="#5d8c65" opacity="0.5"></ellipse><ellipse cx="225.4" cy="186.5" rx="6.8" ry="7.7" fill="#214b29" opacity="0.42"></ellipse><ellipse cx="163.0" cy="226.0" rx="14.9" ry="4.4" fill="#5d8c65" opacity="0.5"></ellipse><ellipse cx="262.2" cy="222.9" rx="17.1" ry="6.7" fill="#5d8c65" opacity="0.5"></ellipse><ellipse cx="165.4" cy="218.8" rx="7.1" ry="6.7" fill="#214b29" opacity="0.42"></ellipse><ellipse cx="185.5" cy="216.6" rx="15.4" ry="7.5" fill="#214b29" opacity="0.42"></ellipse><ellipse cx="187.5" cy="192.2" rx="13.1" ry="4.2" fill="#214b29" opacity="0.42"></ellipse><ellipse cx="250.4" cy="215.6" rx="13.7" ry="7.4" fill="#5d8c65" opacity="0.5"></ellipse><ellipse cx="215.0" cy="201.7" rx="10.5" ry="6.9" fill="#5d8c65" opacity="0.5"></ellipse><ellipse cx="221.2" cy="196.6" rx="17.6" ry="7.7" fill="#214b29" opacity="0.42"></ellipse></g></g></g><defs><radialGradient id="b-spinach-powder-sheen" gradientUnits="userSpaceOnUse" cx="150" cy="186" r="120"><stop offset="0" stop-color="#fff" stop-opacity="0.22"></stop><stop offset="1" stop-color="#fff" stop-opacity="0"></stop></radialGradient><radialGradient id="b-spinach-powder-vig" gradientUnits="userSpaceOnUse" cx="200" cy="232" r="150"><stop offset="0.55" stop-color="#000" stop-opacity="0"></stop><stop offset="1" stop-color="#000" stop-opacity="0.55"></stop></radialGradient></defs><g clip-path="url(#b-spinach-powder-cavclip)"><ellipse cx="200" cy="232" rx="140" ry="48" fill="url(#b-spinach-powder-sheen)"></ellipse><ellipse cx="200" cy="232" rx="140" ry="48" fill="url(#b-spinach-powder-vig)"></ellipse></g><circle cx="44.9" cy="302.7" r="2.3" fill="#214b29" opacity="0.7"></circle><circle cx="42.1" cy="291.8" r="1.9" fill="#2f6b3a" opacity="0.7"></circle><circle cx="269.8" cy="324.3" r="2.6" fill="#214b29" opacity="0.7"></circle><circle cx="311.3" cy="306.3" r="1.2" fill="#2f6b3a" opacity="0.7"></circle><circle cx="201.4" cy="327.7" r="2.7" fill="#214b29" opacity="0.7"></circle><circle cx="302.3" cy="306.3" r="2.2" fill="#214b29" opacity="0.7"></circle><circle cx="42.1" cy="290.2" r="2.2" fill="#214b29" opacity="0.7"></circle><circle cx="83.7" cy="298.0" r="0.9" fill="#2f6b3a" opacity="0.7"></circle><circle cx="60.5" cy="320.9" r="1.5" fill="#2f6b3a" opacity="0.7"></circle><circle cx="83.8" cy="293.6" r="1.4" fill="#2f6b3a" opacity="0.7"></circle><circle cx="266.3" cy="317.0" r="2.2" fill="#214b29" opacity="0.7"></circle><circle cx="202.2" cy="317.3" r="1.2" fill="#2f6b3a" opacity="0.7"></circle><circle cx="324.3" cy="293.9" r="2.2" fill="#214b29" opacity="0.7"></circle><circle cx="51.7" cy="330.2" r="2.7" fill="#214b29" opacity="0.7"></circle><circle cx="219.0" cy="316.5" r="0.9" fill="#2f6b3a" opacity="0.7"></circle><circle cx="75.9" cy="319.8" r="2.3" fill="#214b29" opacity="0.7"></circle><circle cx="253.3" cy="316.3" r="1.8" fill="#2f6b3a" opacity="0.7"></circle><circle cx="104.5" cy="331.8" r="0.9" fill="#2f6b3a" opacity="0.7"></circle><circle cx="241.2" cy="319.3" r="1.2" fill="#2f6b3a" opacity="0.7"></circle><circle cx="217.8" cy="329.3" r="1.1" fill="#2f6b3a" opacity="0.7"></circle><circle cx="345.0" cy="313.7" r="2.1" fill="#214b29" opacity="0.7"></circle><circle cx="277.3" cy="295.6" r="2.1" fill="#214b29" opacity="0.7"></circle><circle cx="257.3" cy="301.9" r="1.3" fill="#2f6b3a" opacity="0.7"></circle><circle cx="185.0" cy="330.5" r="2.6" fill="#214b29" opacity="0.7"></circle><circle cx="126.2" cy="302.7" r="1.9" fill="#2f6b3a" opacity="0.7"></circle><circle cx="198.0" cy="300.8" r="2.6" fill="#214b29" opacity="0.7"></circle><ellipse cx="136" cy="212" rx="26" ry="6" fill="#2f6b3a" opacity="0.35" filter="url(#b-spinach-powder-soft)"></ellipse></g><path d="M 44 236 C 44 262, 108 286, 200 286 C 292 286, 356 262, 356 236 C 356 250, 292 268, 200 268 C 108 268, 44 250, 44 236 Z" fill="url(#b-spinach-powder-rim)" filter="url(#b-spinach-powder-stone)"></path><path d="M 64 246 C 100 262, 150 270, 200 270 C 250 270, 300 262, 336 246" fill="none" stroke="#000" stroke-opacity="0.35" stroke-width="6" filter="url(#b-spinach-powder-soft)"></path></svg>