<?xml version="1.0" encoding="UTF-8"?>
<svg xmlns="http://www.w3.org/2000/svg" viewBox="0 0 400 400" class="" role="presentation" aria-hidden="true" data-bowl="tomato-powder"><defs><radialGradient id="b-tomato-powder-shadow" cx="50%" cy="50%" r="50%"><stop offset="0" stop-color="#000" stop-opacity="0.45"></stop><stop offset="1" stop-color="#000" stop-opacity="0"></stop></radialGradient><linearGradient id="b-tomato-powder-rim" x1="0" y1="0" x2="0" y2="1"><stop offset="0" stop-color="#3a332c"></stop><stop offset="1" stop-color="#15120f"></stop></linearGradient><linearGradient id="b-tomato-powder-body" x1="0" y1="0" x2="0" y2="1"><stop offset="0" stop-color="#221d18"></stop><stop offset="1" stop-color="#0c0a08"></stop></linearGradient><radialGradient id="b-tomato-powder-inner" cx="50%" cy="35%" r="65%"><stop offset="0" stop-color="#2a2420"></stop><stop offset="1" stop-color="#100d0b"></stop></radialGradient></defs><ellipse cx="200" cy="300" rx="176" ry="42" fill="url(#b-tomato-powder-shadow)"></ellipse><path d="M 44 236 C 44 300, 108 328, 200 328 C 292 328, 356 300, 356 236 Z" fill="url(#b-tomato-powder-body)"></path><ellipse cx="200" cy="236" rx="156" ry="50" fill="url(#b-tomato-powder-rim)"></ellipse><ellipse cx="200" cy="238" rx="136" ry="42" fill="url(#b-tomato-powder-inner)"></ellipse><g><defs><radialGradient id="b-tomato-powder-heap" cx="42%" cy="28%" r="80%"><stop offset="0" stop-color="#f0664f"></stop><stop offset="0.5" stop-color="#c4341f"></stop><stop offset="1" stop-color="#9a2717"></stop></radialGradient><pattern id="b-tomato-powder-tex" patternUnits="userSpaceOnUse" width="128" height="128"><image href="/images/grain.png" width="128" height="128"></image></pattern><clipPath id="b-tomato-powder-mound-clip"><path d="M 70 262 C 96 226, 128 182, 176 158 C 196 149, 212 150, 232 160 C 274 182, 302 222, 330 262 Z"></path></clipPath></defs><path d="M 70 262 C 96 226, 128 182, 176 158 C 196 149, 212 150, 232 160 C 274 182, 302 222, 330 262 Z" fill="url(#b-tomato-powder-heap)"></path><ellipse cx="200" cy="248" rx="112" ry="10" fill="#9a2717" opacity="0.35"></ellipse><path d="M 148 186 C 170 168, 198 160, 226 166" fill="none" stroke="#f6f1e4" stroke-opacity="0.32" stroke-width="6" stroke-linecap="round"></path><circle cx="262.5" cy="327.0" r="3.2" fill="#c4341f" opacity="0.7"></circle><circle cx="180.8" cy="306.9" r="1.7" fill="#c4341f" opacity="0.7"></circle><circle cx="180.9" cy="300.8" r="2.1" fill="#c4341f" opacity="0.7"></circle><circle cx="355.4" cy="330.7" r="2.6" fill="#c4341f" opacity="0.7"></circle><circle cx="347.2" cy="292.0" r="3.1" fill="#c4341f" opacity="0.7"></circle><circle cx="269.0" cy="308.1" r="1.7" fill="#c4341f" opacity="0.7"></circle><circle cx="115.2" cy="299.0" r="3.2" fill="#c4341f" opacity="0.7"></circle><circle cx="291.0" cy="315.4" r="1.0" fill="#c4341f" opacity="0.7"></circle><circle cx="242.2" cy="296.3" r="2.4" fill="#c4341f" opacity="0.7"></circle><circle cx="110.7" cy="307.2" r="1.4" fill="#c4341f" opacity="0.7"></circle><circle cx="62.2" cy="318.8" r="2.3" fill="#c4341f" opacity="0.7"></circle><circle cx="286.0" cy="326.0" r="1.8" fill="#c4341f" opacity="0.7"></circle><circle cx="142.7" cy="309.8" r="2.7" fill="#c4341f" opacity="0.7"></circle><circle cx="318.9" cy="326.5" r="2.4" fill="#c4341f" opacity="0.7"></circle><circle cx="115.7" cy="305.7" r="1.1" fill="#c4341f" opacity="0.7"></circle><circle cx="81.8" cy="298.6" r="3.0" fill="#c4341f" opacity="0.7"></circle><circle cx="176.0" cy="313.9" r="2.2" fill="#c4341f" opacity="0.7"></circle><circle cx="243.7" cy="326.7" r="1.3" fill="#c4341f" opacity="0.7"></circle><circle cx="230.3" cy="307.3" r="2.8" fill="#c4341f" opacity="0.7"></circle><circle cx="129.0" cy="318.4" r="1.7" fill="#c4341f" opacity="0.7"></circle><circle cx="350.9" cy="327.4" r="1.7" fill="#c4341f" opacity="0.7"></circle><circle cx="237.8" cy="313.9" r="1.6" fill="#c4341f" opacity="0.7"></circle></g><path d="M 44 236 C 44 262, 108 286, 200 286 C 292 286, 356 262, 356 236 C 356 250, 292 268, 200 268 C 108 268, 44 250, 44 236 Z" fill="url(#b-tomato-powder-rim)"></path><path d="M 60 226 C 96 196, 150 186, 200 186 C 250 186, 304 196, 340 226" fill="none" stroke="#fbf8f1" stroke-opacity="0.14" stroke-width="3"></path></svg>